<svg xmlns="http://www.w3.org/2000/svg" xmlns:xlink="http://www.w3.org/1999/xlink" width="50" height="50" viewBox="0 0 50 50">
  <defs>
    <linearGradient id="linear-gradient" x1="0.5" x2="0.5" y2="1" gradientUnits="objectBoundingBox">
      <stop offset="0" stop-color="#2c53ad"/>
      <stop offset="1" stop-color="#031339"/>
    </linearGradient>
    <linearGradient id="linear-gradient-2" x1="0.5" x2="0.5" y2="1" gradientUnits="objectBoundingBox">
      <stop offset="0" stop-color="#e86e7c"/>
      <stop offset="1" stop-color="#bf4250"/>
    </linearGradient>
  </defs>
  <g id="Group_8" data-name="Group 8" transform="translate(-528 -1294)">
    <rect id="Rectangle_14" data-name="Rectangle 14" width="50" height="50" rx="7" transform="translate(528 1294)" fill="#f2f4f8"/>
    <g id="Group_7" data-name="Group 7">
      <path id="Path_20" data-name="Path 20" d="M244.607,465.821a.607.607,0,0,1-.607-.607v-.607a.607.607,0,1,1,1.214,0v.607A.607.607,0,0,1,244.607,465.821Z" transform="translate(303.393 860.52)" fill="#fff"/>
      <path id="Path_12" data-name="Path 12" d="M161.76,10.437l-6.209-6.209a.778.778,0,0,0-1.1,0l-6.225,6.225a.778.778,0,0,0-.107.967.8.8,0,0,0,.681.361h2.311v24.9h7.781v-24.9h2.334a.778.778,0,0,0,.759-.607A.8.8,0,0,0,161.76,10.437Z" transform="translate(398.639 1299.3)" opacity="0.956" fill="url(#linear-gradient)"/>
      <path id="Path_13" data-name="Path 13" d="M244.778,98.525a.778.778,0,0,1-.778-.778V96.19a.778.778,0,1,1,1.556,0v1.556A.778.778,0,0,1,244.778,98.525Zm0-5.706A.778.778,0,0,1,244,92.04V90.484a.778.778,0,1,1,1.556,0V92.04A.778.778,0,0,1,244.778,92.819Zm0-5.706a.778.778,0,0,1-.778-.778V84.778a.778.778,0,1,1,1.556,0v1.556A.778.778,0,0,1,244.778,87.112Z" transform="translate(308.862 1224.488)" fill="#fff"/>
      <path id="Path_14" data-name="Path 14" d="M16.19,135.511H11.781v-2.284a.8.8,0,0,0-.362-.68.779.779,0,0,0-.966.108l-6.225,6.225a.778.778,0,0,0,0,1.1l6.225,6.225a.779.779,0,0,0,.967.107.8.8,0,0,0,.361-.68v-2.316l4.409-.024a.259.259,0,0,1,.259.259V156.78h7.781V143.552A8.04,8.04,0,0,0,16.19,135.511Z" transform="translate(533.3 1179.201)" opacity="0.827" fill="url(#linear-gradient-2)"/>
      <path id="Path_15" data-name="Path 15" d="M244.778,322.334a.778.778,0,0,1-.778-.778v-.778a.778.778,0,1,1,1.556,0v.778A.778.778,0,0,1,244.778,322.334Z" transform="translate(308.863 1003.791)" fill="#052571"/>
      <path id="Path_16" data-name="Path 16" d="M234.208,264.2a.778.778,0,0,1-.735-.524,3.872,3.872,0,0,0-.384-.8.778.778,0,1,1,1.317-.829,5.429,5.429,0,0,1,.538,1.122.779.779,0,0,1-.736,1.032Z" transform="translate(319.178 1058.323)" fill="#fff"/>
      <path id="Path_17" data-name="Path 17" d="M129.642,229.923a.777.777,0,0,1-.3-.062,3.872,3.872,0,0,0-.851-.249.778.778,0,1,1,.263-1.534,5.426,5.426,0,0,1,1.194.35.778.778,0,0,1-.3,1.495Zm-3.866-.367h-1.068a.778.778,0,0,1,0-1.556h1.068a.778.778,0,0,1,0,1.556Z" transform="translate(421.147 1089.825)" fill="#e2e7f2"/>
      <path id="Path_18" data-name="Path 18" d="M69.556,229.556h-.778a.778.778,0,1,1,0-1.556h.778a.778.778,0,0,1,0,1.556Z" transform="translate(473.45 1089.825)" fill="#fff"/>
      <path id="Path_19" data-name="Path 19" d="M216,258.479l-6.209-6.209a.8.8,0,0,0-.737-.225.778.778,0,0,0-.608.759v2.307H204.04a8.04,8.04,0,0,0-8.04,8.04v5.474h7.781v-5.474a.259.259,0,0,1,.255-.259l4.413.024v2.316a.8.8,0,0,0,.361.68.779.779,0,0,0,.967-.107L216,259.58A.778.778,0,0,0,216,258.479Z" transform="translate(353.75 1067.355)" opacity="0.912" fill="url(#linear-gradient-2)"/>
      <path id="Path_21" data-name="Path 21" d="M244.924,400.258l-.05,0a.778.778,0,0,1-.728-.826,5.437,5.437,0,0,1,.259-1.351.778.778,0,1,1,1.479.485,3.881,3.881,0,0,0-.185.964A.778.778,0,0,1,244.924,400.258Z" transform="translate(308.727 931.275)" fill="#fff"/>
      <path id="Path_22" data-name="Path 22" d="M277.393,350.316a.778.778,0,0,1-.427-1.429,5.422,5.422,0,0,1,1.237-.6.778.778,0,0,1,.5,1.475,3.87,3.87,0,0,0-.882.429A.775.775,0,0,1,277.393,350.316Zm5.366-.76h-1.182a.778.778,0,1,1,0-1.556h1.182a.778.778,0,1,1,0,1.556Z" transform="translate(278.363 977.606)" fill="#fff"/>
      <path id="Path_23" data-name="Path 23" d="M409.556,349.556h-.778a.778.778,0,0,1,0-1.556h.778a.778.778,0,1,1,0,1.556Z" transform="translate(155.497 977.606)" fill="#fff"/>
    </g>
  </g>
</svg>
