<svg xmlns="http://www.w3.org/2000/svg" xmlns:xlink="http://www.w3.org/1999/xlink" width="51" height="50" viewBox="0 0 51 50">
  <defs>
    <linearGradient id="linear-gradient" x1="0.5" x2="0.5" y2="1" gradientUnits="objectBoundingBox">
      <stop offset="0" stop-color="#e86e7c"/>
      <stop offset="1" stop-color="#bf4250"/>
    </linearGradient>
    <linearGradient id="linear-gradient-3" x1="0.5" x2="0.5" y2="1" gradientUnits="objectBoundingBox">
      <stop offset="0" stop-color="#2c53ad"/>
      <stop offset="1" stop-color="#031339"/>
    </linearGradient>
  </defs>
  <g id="Group_6" data-name="Group 6" transform="translate(-127 -1294)">
    <rect id="Rectangle_13" data-name="Rectangle 13" width="51" height="50" rx="7" transform="translate(127 1294)" fill="#f2f4f8"/>
    <g id="Group_5" data-name="Group 5">
      <path id="Path_9" data-name="Path 9" d="M122.64,119.281a8.882,8.882,0,1,0,8.882,8.882A8.892,8.892,0,0,0,122.64,119.281Zm5.294,8.735-1.9,1.381.726,2.235a1.44,1.44,0,0,1-2.217,1.611l-1.9-1.381-1.9,1.381a1.441,1.441,0,0,1-2.217-1.611l.726-2.235-1.9-1.382a1.441,1.441,0,0,1,.847-2.607h2.35l.726-2.235a1.441,1.441,0,0,1,2.741,0l.726,2.235h2.35a1.441,1.441,0,0,1,.847,2.607Zm0,0" transform="translate(29.296 1191.283)" fill="url(#linear-gradient)"/>
      <path id="Path_10" data-name="Path 10" d="M209.345,212.474l-.357-1.1-.357,1.1a1.438,1.438,0,0,1-1.371,1h-1.155l.935.679a1.437,1.437,0,0,1,.523,1.611l-.357,1.1.935-.679a1.437,1.437,0,0,1,1.694,0l.935.679-.357-1.1a1.437,1.437,0,0,1,.523-1.611l.935-.679h-1.155A1.437,1.437,0,0,1,209.345,212.474Zm0,0" transform="translate(-57.053 1105.172)" fill="url(#linear-gradient)"/>
      <path id="Path_11" data-name="Path 11" d="M31.922,14.8l-1.1-1.1a14.657,14.657,0,0,0-.526-1.769l.577-2.151A1.892,1.892,0,0,0,29.54,7.464l-2.165-.58a14.868,14.868,0,0,0-1.29-1.29l-.58-2.165a1.9,1.9,0,0,0-2.317-1.337l-2.152.577a14.62,14.62,0,0,0-1.769-.526L17.677.554A1.892,1.892,0,0,0,15,.554l-1.59,1.589a14.68,14.68,0,0,0-1.769.526L9.49,2.092l-.006,0A1.9,1.9,0,0,0,7.173,3.43l-.58,2.165A14.832,14.832,0,0,0,5.3,6.884l-2.165.58A1.891,1.891,0,0,0,1.8,9.782l.577,2.152A14.643,14.643,0,0,0,1.852,13.7l-1.1,1.1a2.593,2.593,0,0,0,0,3.663l1.1,1.1a14.642,14.642,0,0,0,.526,1.769L1.8,23.479A1.892,1.892,0,0,0,3.139,25.8l2.165.58a14.832,14.832,0,0,0,1.29,1.29l.58,2.165a1.888,1.888,0,0,0,2.32,1.337l2.15-.576a14.679,14.679,0,0,0,1.769.526L15,32.707a1.892,1.892,0,0,0,2.675,0l1.6-1.649a14.655,14.655,0,0,0,1.759-.467l2.154.578a1.885,1.885,0,0,0,2.32-1.337l.58-2.165a14.868,14.868,0,0,0,1.29-1.29l2.165-.58a1.891,1.891,0,0,0,1.338-2.317L30.3,21.327a14.67,14.67,0,0,0,.526-1.769l1.1-1.1A2.593,2.593,0,0,0,31.922,14.8ZM16.271,27.462A10.831,10.831,0,1,1,27.1,16.631,10.843,10.843,0,0,1,16.271,27.462Zm0,0" transform="translate(135.665 1302.815)" opacity="0.862" fill="url(#linear-gradient-3)"/>
    </g>
  </g>
</svg>
