<svg xmlns="http://www.w3.org/2000/svg" xmlns:xlink="http://www.w3.org/1999/xlink" width="40" height="39" viewBox="0 0 40 39">
  <defs>
    <linearGradient id="linear-gradient" x1="0.5" x2="0.5" y2="1" gradientUnits="objectBoundingBox">
      <stop offset="0" stop-color="#e86e7c"/>
      <stop offset="1" stop-color="#bf4250"/>
    </linearGradient>
    <linearGradient id="linear-gradient-4" x1="0.5" x2="0.5" y2="1" gradientUnits="objectBoundingBox">
      <stop offset="0" stop-color="#2c53ad"/>
      <stop offset="1" stop-color="#031339"/>
    </linearGradient>
  </defs>
  <g id="Group_13" data-name="Group 13" transform="translate(-127 -1545)">
    <rect id="Rectangle_16" data-name="Rectangle 16" width="40" height="39" rx="7" transform="translate(127 1545)" fill="#f2f4f8"/>
    <g id="Group_12" data-name="Group 12">
      <path id="Path_26" data-name="Path 26" d="M71.3,270.591a.942.942,0,0,0-1.217-.094l-.009-.006-.808.808a.93.93,0,0,0-.274.663.942.942,0,0,0,.938.938.986.986,0,0,0,.747-.358l.624-.624a.938.938,0,0,0,0-1.327Z" transform="translate(70.821 1297.842)" fill="url(#linear-gradient)"/>
      <path id="Path_27" data-name="Path 27" d="M30.511,220.811a.939.939,0,0,0-1.327,0l-.707.708a.938.938,0,0,0,1.326,1.327l.708-.708A.939.939,0,0,0,30.511,220.811Z" transform="translate(109.359 1344.874)" fill="url(#linear-gradient)"/>
      <path id="Path_28" data-name="Path 28" d="M117.416,314.025a.933.933,0,0,0-.664.275l-.708.708-.01.01a.938.938,0,0,0,1.337,1.316l.708-.708A.941.941,0,0,0,117.416,314.025Z" transform="translate(26.62 1256.548)" fill="url(#linear-gradient)"/>
      <path id="Path_29" data-name="Path 29" d="M14.332,20.1a3.756,3.756,0,0,1-4.651-.521L8.04,17.938l2.048-2.048a5.768,5.768,0,1,0-8.149,8.134,2.6,2.6,0,0,1,3.855,2.441,2.607,2.607,0,0,1,2.248,2.393,2.61,2.61,0,0,1,2.5,1.916,2.6,2.6,0,0,1,2.609.8l.019-.022a.939.939,0,0,0,1.2-1.414l0,0L10.645,26.4l1.171-1.171L15.5,28.919a.938.938,0,0,0,1.326-1.327l-3.686-3.686,1.171-1.171L18,26.421a.938.938,0,0,0,1.327-1.327Z" transform="translate(136 1540.06)" opacity="0.811" fill="url(#linear-gradient-4)"/>
      <path id="Path_30" data-name="Path 30" d="M198.508,15.558a5.764,5.764,0,0,0-8.141,0l-2.315,2.316.469.469a2.094,2.094,0,0,0,2.959,0l.586-.586c.311.315,6.029,6.023,6.19,6.195A5.789,5.789,0,0,0,198.508,15.558Z" transform="translate(-41.669 1540.125)" fill="url(#linear-gradient)"/>
      <path id="Path_31" data-name="Path 31" d="M175.383,347.491a.939.939,0,0,0-1.327,0l-.708.708a.938.938,0,0,0,1.327,1.327l.708-.708A.943.943,0,0,0,175.383,347.491Z" transform="translate(-27.519 1225.189)" fill="url(#linear-gradient)"/>
    </g>
  </g>
</svg>
