<svg xmlns="http://www.w3.org/2000/svg" xmlns:xlink="http://www.w3.org/1999/xlink" width="39" height="39" viewBox="0 0 39 39">
  <defs>
    <linearGradient id="linear-gradient" x1="0.5" x2="0.5" y2="1" gradientUnits="objectBoundingBox">
      <stop offset="0" stop-color="#2c53ad"/>
      <stop offset="1" stop-color="#031339"/>
    </linearGradient>
    <linearGradient id="linear-gradient-3" x1="0.5" x2="0.5" y2="1" gradientUnits="objectBoundingBox">
      <stop offset="0" stop-color="#e86e7c"/>
      <stop offset="1" stop-color="#bf4250"/>
    </linearGradient>
  </defs>
  <g id="Group_11" data-name="Group 11" transform="translate(-528 -1545)">
    <rect id="Rectangle_17" data-name="Rectangle 17" width="39" height="39" rx="7" transform="translate(528 1545)" fill="#f2f4f8"/>
    <g id="Group_4" data-name="Group 4" transform="translate(-1.403 -1.403)">
      <g id="Group_1" data-name="Group 1" transform="translate(539.957 1557.295)" opacity="0.774">
        <path id="Path_32" data-name="Path 32" d="M32.508,67.016a2.508,2.508,0,1,1,2.508-2.508A2.51,2.51,0,0,1,32.508,67.016Z" transform="translate(-30 -62)" fill="url(#linear-gradient)"/>
      </g>
      <g id="Group_2" data-name="Group 2" transform="translate(553.834 1557.295)" opacity="0.774">
        <path id="Path_33" data-name="Path 33" d="M364.508,67.016a2.508,2.508,0,1,1,2.508-2.508A2.51,2.51,0,0,1,364.508,67.016Z" transform="translate(-362 -62)" fill="url(#linear-gradient)"/>
      </g>
      <g id="Group_3" data-name="Group 3" transform="translate(546.268 1554.703)">
        <path id="Path_34" data-name="Path 34" d="M184.135,6.27a3.135,3.135,0,1,1,3.135-3.135A3.138,3.138,0,0,1,184.135,6.27Z" transform="translate(-181)" fill="url(#linear-gradient-3)"/>
      </g>
      <path id="Path_35" data-name="Path 35" d="M156.016,151.516v4.325a.627.627,0,0,1-1.254,0v-4.325A4.382,4.382,0,0,0,151,155.841V159.6a.627.627,0,0,0,.627.627h1.4l.479,5.779a.627.627,0,0,0,.624.574h2.508a.627.627,0,0,0,.624-.574l.479-5.779h1.4a.627.627,0,0,0,.627-.627v-3.762A4.382,4.382,0,0,0,156.016,151.516Z" transform="translate(394.014 1409.52)" fill="url(#linear-gradient-3)"/>
      <path id="Path_36" data-name="Path 36" d="M5.016,188.9v-3.762a5.571,5.571,0,0,1,.661-2.593A3.721,3.721,0,0,0,3.762,182,3.766,3.766,0,0,0,0,185.762V188.9a.627.627,0,0,0,.627.627h.686l.571,5.705a.627.627,0,0,0,.624.565H5.016a.627.627,0,0,0,.624-.565L6.1,190.6a1.879,1.879,0,0,1-1.087-1.7Z" transform="translate(538.703 1380.31)" opacity="0.774" fill="url(#linear-gradient)"/>
      <path id="Path_37" data-name="Path 37" d="M372.089,185.762A3.766,3.766,0,0,0,368.327,182a3.721,3.721,0,0,0-1.915.542,5.571,5.571,0,0,1,.661,2.593V188.9a1.879,1.879,0,0,1-1.087,1.7l.463,4.633a.627.627,0,0,0,.624.565h2.508a.627.627,0,0,0,.624-.565l.571-5.705h.686a.627.627,0,0,0,.627-.627Z" transform="translate(188.014 1380.31)" opacity="0.774" fill="url(#linear-gradient)"/>
    </g>
  </g>
</svg>
