<svg xmlns="http://www.w3.org/2000/svg" width="267.667" height="90.834" viewBox="0 0 267.667 90.834">
  <g id="Group_1303" data-name="Group 1303" transform="translate(2594 1334)">
    <g id="Group_1302" data-name="Group 1302" transform="translate(-2670.297 -1381.103)">
      <g id="Group_1275" data-name="Group 1275">
        <path id="Path_1" data-name="Path 1" d="M155.267,64.444a8.365,8.365,0,0,0-5.851-4.832l-48.523-11.99A22.105,22.105,0,0,0,96.46,47.1a13.294,13.294,0,0,0-8.872,3.566,81.254,81.254,0,0,0-8.316,8.311,12.837,12.837,0,0,0-2.531,11.563L86.55,103.36c1.595,4.77,5.765,9.431,11.408,9.185l14.679-1.309,7.885,21.794c.824,2.31,2.579,4.907,5.236,4.907,2.781,0,4.416-1.84,5.291-4.257L154.939,72.8a10.632,10.632,0,0,0,1.02-4.291,8.955,8.955,0,0,0-.692-4.067m-7.008,5.268c-.019.042-.04.084-.057.127l-21.07,54.316-3.019-21.081a3.681,3.681,0,0,0-3.652-3.208l-15.619.205a4.828,4.828,0,0,1-4.514-3.543L92.143,61.06c-.43-2.229-.15-4.082.789-5.219a4.482,4.482,0,0,1,3.527-1.383,9.811,9.811,0,0,1,2.345.309l48.522,11.99a1.566,1.566,0,0,1,1.123.814,2.562,2.562,0,0,1-.191,2.135" fill="#0b2b6a"/>
        <path id="Path_2" data-name="Path 2" d="M129.453,74.841l-17.147-3.5c-1.778-.429-2.882.521-2.576,2.239l1.078,6.28,7.4,1.037c.761.176,1.015,1.036.568,1.919l-2.455,5.9,7.362-.054a3.063,3.063,0,0,0,3.3-2.249l3.751-8.822a1.859,1.859,0,0,0-.69-2.537,1.828,1.828,0,0,0-.594-.216" fill="#0b2b6a"/>
      </g>
      <g id="Group_1301" data-name="Group 1301">
        <g id="Group_1299" data-name="Group 1299" style="isolation: isolate">
          <path id="Path_13207" data-name="Path 13207" d="M168.939,86.1v-16h5.406a6.24,6.24,0,0,1,3.082.675,4.286,4.286,0,0,1,1.778,1.825,5.621,5.621,0,0,1,.578,2.562,5.7,5.7,0,0,1-.575,2.57,4.292,4.292,0,0,1-1.769,1.84,6.114,6.114,0,0,1-3.063.684H170.5V78.537h3.813a4.166,4.166,0,0,0,2.07-.445,2.673,2.673,0,0,0,1.137-1.207,4.349,4.349,0,0,0,0-3.442,2.607,2.607,0,0,0-1.145-1.191,4.346,4.346,0,0,0-2.093-.434h-3.407V86.1Z" fill="#515252"/>
          <path id="Path_13208" data-name="Path 13208" d="M187.408,86.35a5.073,5.073,0,0,1-4.754-2.938,7.282,7.282,0,0,1-.684-3.25,7.366,7.366,0,0,1,.684-3.273,5.26,5.26,0,0,1,9.508,0,7.38,7.38,0,0,1,.683,3.273,7.3,7.3,0,0,1-.683,3.25,5.076,5.076,0,0,1-4.754,2.938Zm0-1.657a3.171,3.171,0,0,0,2.031-.632,3.74,3.74,0,0,0,1.18-1.665A6.4,6.4,0,0,0,191,80.162a6.46,6.46,0,0,0-.382-2.242,3.792,3.792,0,0,0-1.18-1.68,3.544,3.544,0,0,0-4.063,0,3.782,3.782,0,0,0-1.179,1.68,6.414,6.414,0,0,0-.383,2.242A6.349,6.349,0,0,0,184.2,82.4a3.73,3.73,0,0,0,1.179,1.665A3.172,3.172,0,0,0,187.408,84.693Z" fill="#515252"/>
          <path id="Path_13209" data-name="Path 13209" d="M197.97,86.1l-3.656-12h1.937l2.594,9.187h.125l2.563-9.187H203.5l2.532,9.156h.125l2.593-9.156h1.938l-3.656,12H205.22L202.6,76.881h-.187L199.783,86.1Z" fill="#515252"/>
          <path id="Path_13210" data-name="Path 13210" d="M217.751,86.35a5.6,5.6,0,0,1-2.988-.77,5.074,5.074,0,0,1-1.93-2.156,7.3,7.3,0,0,1-.675-3.231,7.456,7.456,0,0,1,.675-3.254,5.3,5.3,0,0,1,1.891-2.2,5.082,5.082,0,0,1,2.84-.793,5.693,5.693,0,0,1,1.851.313,4.61,4.61,0,0,1,1.665,1.012,4.89,4.89,0,0,1,1.195,1.847,7.857,7.857,0,0,1,.445,2.828v.782h-9.25V79.131h7.375a3.973,3.973,0,0,0-.4-1.813,3.1,3.1,0,0,0-1.141-1.257,3.208,3.208,0,0,0-1.738-.461,3.3,3.3,0,0,0-1.9.543,3.6,3.6,0,0,0-1.231,1.41,4.124,4.124,0,0,0-.43,1.859v1.063a5.088,5.088,0,0,0,.473,2.3,3.325,3.325,0,0,0,1.316,1.43,3.851,3.851,0,0,0,1.961.488,3.96,3.96,0,0,0,1.317-.207,2.724,2.724,0,0,0,1.019-.625,2.8,2.8,0,0,0,.664-1.043l1.782.5a3.919,3.919,0,0,1-.946,1.59,4.542,4.542,0,0,1-1.64,1.063A6.026,6.026,0,0,1,217.751,86.35Z" fill="#515252"/>
          <path id="Path_13211" data-name="Path 13211" d="M225.533,86.1v-12h1.781v1.812h.125a2.881,2.881,0,0,1,1.187-1.445,3.5,3.5,0,0,1,1.938-.555c.135,0,.305,0,.508.008s.356.013.461.023v1.875c-.063-.015-.205-.04-.426-.074a4.615,4.615,0,0,0-.7-.051,3.261,3.261,0,0,0-1.559.364,2.765,2.765,0,0,0-1.078,1,2.692,2.692,0,0,0-.395,1.449V86.1Z" fill="#515252"/>
          <path id="Path_13212" data-name="Path 13212" d="M238.376,86.35a5.6,5.6,0,0,1-2.988-.77,5.068,5.068,0,0,1-1.93-2.156,7.287,7.287,0,0,1-.676-3.231,7.442,7.442,0,0,1,.676-3.254,5.294,5.294,0,0,1,1.891-2.2,5.079,5.079,0,0,1,2.839-.793,5.7,5.7,0,0,1,1.852.313,4.614,4.614,0,0,1,1.664,1.012,4.89,4.89,0,0,1,1.2,1.847,7.856,7.856,0,0,1,.446,2.828v.782H234.1V79.131h7.375a3.974,3.974,0,0,0-.4-1.813,3.093,3.093,0,0,0-1.14-1.257,3.209,3.209,0,0,0-1.739-.461,3.3,3.3,0,0,0-1.9.543,3.61,3.61,0,0,0-1.23,1.41,4.124,4.124,0,0,0-.43,1.859v1.063a5.075,5.075,0,0,0,.473,2.3,3.319,3.319,0,0,0,1.316,1.43,3.848,3.848,0,0,0,1.961.488,3.954,3.954,0,0,0,1.316-.207,2.736,2.736,0,0,0,1.02-.625,2.8,2.8,0,0,0,.664-1.043l1.781.5a3.917,3.917,0,0,1-.945,1.59,4.546,4.546,0,0,1-1.641,1.063A6.02,6.02,0,0,1,238.376,86.35Z" fill="#515252"/>
          <path id="Path_13213" data-name="Path 13213" d="M250.688,86.35a4.679,4.679,0,0,1-2.648-.762,5.086,5.086,0,0,1-1.8-2.156,7.776,7.776,0,0,1-.648-3.3,7.7,7.7,0,0,1,.648-3.281,5.04,5.04,0,0,1,1.805-2.149,4.762,4.762,0,0,1,2.672-.758,3.772,3.772,0,0,1,1.855.387,3.311,3.311,0,0,1,1.047.875c.242.325.431.593.566.8h.157V70.1h1.843v16h-1.781V84.256h-.219q-.2.329-.578.824a3.366,3.366,0,0,1-1.07.883A3.808,3.808,0,0,1,250.688,86.35Zm.25-1.657a3.006,3.006,0,0,0,1.875-.582,3.573,3.573,0,0,0,1.164-1.617,6.63,6.63,0,0,0,.4-2.394,6.51,6.51,0,0,0-.391-2.356,3.448,3.448,0,0,0-1.156-1.578,3.461,3.461,0,0,0-3.84.031,3.6,3.6,0,0,0-1.164,1.617,6.4,6.4,0,0,0-.387,2.286,6.524,6.524,0,0,0,.395,2.324,3.733,3.733,0,0,0,1.172,1.656A3.022,3.022,0,0,0,250.938,84.693Z" fill="#515252"/>
          <path id="Path_13214" data-name="Path 13214" d="M266.251,86.1v-16H268.1v5.906h.156c.135-.208.324-.476.566-.8a3.322,3.322,0,0,1,1.047-.875,3.774,3.774,0,0,1,1.856-.387,4.767,4.767,0,0,1,2.672.758,5.045,5.045,0,0,1,1.8,2.149,7.7,7.7,0,0,1,.649,3.281,7.776,7.776,0,0,1-.649,3.3,5.085,5.085,0,0,1-1.8,2.156,4.676,4.676,0,0,1-2.648.762,3.808,3.808,0,0,1-1.852-.387,3.366,3.366,0,0,1-1.07-.883q-.375-.5-.578-.824h-.219V86.1Zm1.812-6a6.63,6.63,0,0,0,.4,2.394,3.573,3.573,0,0,0,1.164,1.617,3.335,3.335,0,0,0,3.809-.031,3.739,3.739,0,0,0,1.171-1.656A6.524,6.524,0,0,0,275,80.1a6.4,6.4,0,0,0-.387-2.286A3.6,3.6,0,0,0,273.45,76.2a3.461,3.461,0,0,0-3.84-.031,3.448,3.448,0,0,0-1.156,1.578A6.51,6.51,0,0,0,268.063,80.1Z" fill="#515252"/>
          <path id="Path_13215" data-name="Path 13215" d="M280.407,90.568a4.2,4.2,0,0,1-.836-.074,2.39,2.39,0,0,1-.508-.144l.469-1.625a2.706,2.706,0,0,0,1.679-.012,2.567,2.567,0,0,0,1.164-1.613l.344-.938L278.282,74.1h2l3.312,9.562h.125l3.313-9.562,2.015.031L283.938,87.85a5.184,5.184,0,0,1-.852,1.519,3.253,3.253,0,0,1-1.175.9A3.651,3.651,0,0,1,280.407,90.568Z" fill="#515252"/>
        </g>
        <g id="Group_1300" data-name="Group 1300" style="isolation: isolate">
          <path id="Path_13216" data-name="Path 13216" d="M180.738,118.622h-2.866v-7.814H177.7a7.918,7.918,0,0,1-.743,1.074,4.226,4.226,0,0,1-1.328,1.055,4.637,4.637,0,0,1-2.186.451,5.667,5.667,0,0,1-3.179-.916,6.131,6.131,0,0,1-2.186-2.618,9.646,9.646,0,0,1-.791-4.089,9.5,9.5,0,0,1,.8-4.084,6.083,6.083,0,0,1,2.2-2.6,5.735,5.735,0,0,1,3.174-.9,4.624,4.624,0,0,1,2.21.455,4.054,4.054,0,0,1,1.3,1.059,9.34,9.34,0,0,1,.724,1.065h.239V98.372h2.8Zm-2.819-12.886a7.471,7.471,0,0,0-.441-2.684,3.936,3.936,0,0,0-1.294-1.793,3.793,3.793,0,0,0-4.267.028,4.072,4.072,0,0,0-1.3,1.831,7.4,7.4,0,0,0-.436,2.618,7.541,7.541,0,0,0,.441,2.656,4.173,4.173,0,0,0,1.309,1.865,3.68,3.68,0,0,0,4.237.028,4.041,4.041,0,0,0,1.3-1.826A7.628,7.628,0,0,0,177.919,105.736Z" fill="#0b2b6a"/>
          <path id="Path_13217" data-name="Path 13217" d="M184.593,113.1V98.372h2.752v2.4h.182a3.825,3.825,0,0,1,1.505-1.9,4.459,4.459,0,0,1,2.5-.685,4.266,4.266,0,0,1,2.478.69,4.052,4.052,0,0,1,1.481,1.9h.154a4.161,4.161,0,0,1,1.678-1.884,5.137,5.137,0,0,1,2.742-.705,4.46,4.46,0,0,1,3.274,1.256,5.109,5.109,0,0,1,1.271,3.787V113.1h-2.867v-9.608a2.653,2.653,0,0,0-.815-2.167,2.968,2.968,0,0,0-1.947-.671,2.783,2.783,0,0,0-2.176.859,3.151,3.151,0,0,0-.777,2.2V113.1h-2.857v-9.789a2.569,2.569,0,0,0-.748-1.928,2.669,2.669,0,0,0-1.946-.729,2.789,2.789,0,0,0-1.5.427,3.159,3.159,0,0,0-1.1,1.184,3.594,3.594,0,0,0-.417,1.755v9.08Z" fill="#0b2b6a"/>
          <path id="Path_13218" data-name="Path 13218" d="M214.795,113.4a7.179,7.179,0,0,1-3.744-.934,6.223,6.223,0,0,1-2.416-2.637,9.8,9.8,0,0,1,0-7.982,6.346,6.346,0,0,1,5.959-3.662,7.216,7.216,0,0,1,2.416.412,5.842,5.842,0,0,1,2.1,1.295,6.091,6.091,0,0,1,1.467,2.286,9.573,9.573,0,0,1,.537,3.409V106.6H209.407v-2.148h8.9a4.26,4.26,0,0,0-.46-2.009,3.5,3.5,0,0,0-1.29-1.385,3.648,3.648,0,0,0-1.941-.508,3.738,3.738,0,0,0-2.105.59,3.981,3.981,0,0,0-1.381,1.534,4.429,4.429,0,0,0-.483,2.047V106.4a5.513,5.513,0,0,0,.522,2.512,3.675,3.675,0,0,0,1.462,1.578,4.318,4.318,0,0,0,2.2.541,4.493,4.493,0,0,0,1.486-.234,3.168,3.168,0,0,0,1.16-.705,3.1,3.1,0,0,0,.748-1.16l2.713.489a4.9,4.9,0,0,1-1.164,2.1,5.655,5.655,0,0,1-2.1,1.39A7.827,7.827,0,0,1,214.795,113.4Z" fill="#0b2b6a"/>
          <path id="Path_13219" data-name="Path 13219" d="M227.173,93.463V113.1h-2.867V93.463Z" fill="#0b2b6a"/>
          <path id="Path_13220" data-name="Path 13220" d="M237.231,113.4a6.76,6.76,0,0,1-3.615-.949,6.4,6.4,0,0,1-2.4-2.655,9.8,9.8,0,0,1,0-8,6.39,6.39,0,0,1,2.4-2.665,7.36,7.36,0,0,1,7.23,0,6.4,6.4,0,0,1,2.4,2.665,9.8,9.8,0,0,1,0,8,6.413,6.413,0,0,1-2.4,2.655A6.764,6.764,0,0,1,237.231,113.4Zm.009-2.406a3.434,3.434,0,0,0,2.225-.71,4.179,4.179,0,0,0,1.308-1.888,8.1,8.1,0,0,0,0-5.192,4.243,4.243,0,0,0-1.308-1.9,3.82,3.82,0,0,0-4.464,0,4.228,4.228,0,0,0-1.313,1.9,8.1,8.1,0,0,0,0,5.192A4.165,4.165,0,0,0,235,110.28,3.468,3.468,0,0,0,237.24,110.99Z" fill="#0b2b6a"/>
          <path id="Path_13221" data-name="Path 13221" d="M253.492,113.4a6.741,6.741,0,0,1-3.677-.972,6.36,6.36,0,0,1-2.363-2.69,9.754,9.754,0,0,1,.019-7.9,6.465,6.465,0,0,1,2.378-2.69,6.629,6.629,0,0,1,3.614-.968,6.949,6.949,0,0,1,2.992.618,5.447,5.447,0,0,1,2.124,1.73,5.245,5.245,0,0,1,.963,2.6h-2.79a3.351,3.351,0,0,0-1.05-1.783,3.123,3.123,0,0,0-2.191-.748,3.564,3.564,0,0,0-2.1.628,4.087,4.087,0,0,0-1.4,1.783,6.835,6.835,0,0,0-.5,2.728,7.191,7.191,0,0,0,.49,2.781,4.107,4.107,0,0,0,1.385,1.812,3.8,3.8,0,0,0,3.6.34,3.019,3.019,0,0,0,1.121-.867,3.321,3.321,0,0,0,.638-1.363h2.79a5.324,5.324,0,0,1-3.006,4.316A6.794,6.794,0,0,1,253.492,113.4Z" fill="#0b2b6a"/>
          <path id="Path_13222" data-name="Path 13222" d="M266.906,113.426a5.979,5.979,0,0,1-2.532-.523,4.208,4.208,0,0,1-1.788-1.519,4.352,4.352,0,0,1-.656-2.446,3.956,3.956,0,0,1,.479-2.051,3.537,3.537,0,0,1,1.3-1.276,6.8,6.8,0,0,1,1.821-.71,18.483,18.483,0,0,1,2.052-.364q1.323-.152,2.148-.254a3.1,3.1,0,0,0,1.2-.331.808.808,0,0,0,.374-.747v-.067a2.605,2.605,0,0,0-.7-1.947,2.882,2.882,0,0,0-2.1-.69,3.653,3.653,0,0,0-2.278.638,3.446,3.446,0,0,0-1.145,1.414l-2.7-.614a5.191,5.191,0,0,1,1.4-2.171,5.716,5.716,0,0,1,2.133-1.208,8.435,8.435,0,0,1,2.541-.379,9.184,9.184,0,0,1,1.874.206,5.586,5.586,0,0,1,1.861.753,4.164,4.164,0,0,1,1.424,1.557,5.431,5.431,0,0,1,.556,2.622V113.1h-2.8v-2.014h-.115a4.1,4.1,0,0,1-.834,1.093,4.441,4.441,0,0,1-1.429.892A5.528,5.528,0,0,1,266.906,113.426Zm.623-2.3a4.133,4.133,0,0,0,2.037-.47,3.31,3.31,0,0,0,1.295-1.231,3.191,3.191,0,0,0,.446-1.635v-1.9a1.453,1.453,0,0,1-.59.282,8.033,8.033,0,0,1-.992.221q-.557.09-1.083.163l-.883.12a6.992,6.992,0,0,0-1.519.354,2.6,2.6,0,0,0-1.094.715,2.048,2.048,0,0,0,.379,2.838A3.456,3.456,0,0,0,267.529,111.124Z" fill="#0b2b6a"/>
          <path id="Path_13223" data-name="Path 13223" d="M280.856,93.463V113.1h-2.867V93.463Z" fill="#0b2b6a"/>
          <path id="Path_13224" data-name="Path 13224" d="M286.6,113.282a1.924,1.924,0,0,1-1.917-1.918,1.826,1.826,0,0,1,.566-1.347,1.908,1.908,0,0,1,2.7,0,1.888,1.888,0,0,1,.3,2.311,1.991,1.991,0,0,1-.695.694A1.826,1.826,0,0,1,286.6,113.282Z" fill="#0b2b6a"/>
          <path id="Path_13225" data-name="Path 13225" d="M298.556,113.4a6.745,6.745,0,0,1-3.678-.972,6.359,6.359,0,0,1-2.363-2.69,9.754,9.754,0,0,1,.019-7.9,6.472,6.472,0,0,1,2.378-2.69,6.635,6.635,0,0,1,3.615-.968,6.944,6.944,0,0,1,2.991.618,5.44,5.44,0,0,1,2.124,1.73,5.245,5.245,0,0,1,.963,2.6h-2.79a3.349,3.349,0,0,0-1.049-1.783,3.125,3.125,0,0,0-2.191-.748,3.565,3.565,0,0,0-2.1.628,4.1,4.1,0,0,0-1.395,1.783,6.853,6.853,0,0,0-.5,2.728,7.191,7.191,0,0,0,.489,2.781,4.122,4.122,0,0,0,1.385,1.812,3.8,3.8,0,0,0,3.6.34,3.023,3.023,0,0,0,1.122-.867,3.32,3.32,0,0,0,.637-1.363h2.79a5.326,5.326,0,0,1-3.005,4.316A6.8,6.8,0,0,1,298.556,113.4Z" fill="#0b2b6a"/>
          <path id="Path_13226" data-name="Path 13226" d="M313.887,113.4a6.76,6.76,0,0,1-3.615-.949,6.4,6.4,0,0,1-2.4-2.655,9.8,9.8,0,0,1,0-8,6.39,6.39,0,0,1,2.4-2.665,7.358,7.358,0,0,1,7.229,0,6.386,6.386,0,0,1,2.4,2.665,9.808,9.808,0,0,1,0,8,6.4,6.4,0,0,1-2.4,2.655A6.759,6.759,0,0,1,313.887,113.4Zm.009-2.406a3.432,3.432,0,0,0,2.225-.71,4.187,4.187,0,0,0,1.308-1.888,8.1,8.1,0,0,0,0-5.192,4.25,4.25,0,0,0-1.308-1.9,3.818,3.818,0,0,0-4.463,0,4.222,4.222,0,0,0-1.314,1.9,8.1,8.1,0,0,0,0,5.192,4.159,4.159,0,0,0,1.314,1.888A3.461,3.461,0,0,0,313.9,110.99Z" fill="#0b2b6a"/>
          <path id="Path_13227" data-name="Path 13227" d="M323.945,113.1V98.372H326.7v2.4h.181a3.832,3.832,0,0,1,1.506-1.9,4.46,4.46,0,0,1,2.5-.685,4.267,4.267,0,0,1,2.479.69,4.052,4.052,0,0,1,1.481,1.9H335a4.172,4.172,0,0,1,1.678-1.884,5.142,5.142,0,0,1,2.742-.705,4.462,4.462,0,0,1,3.275,1.256,5.112,5.112,0,0,1,1.27,3.787V113.1H341.1v-9.608a2.653,2.653,0,0,0-.814-2.167,2.97,2.97,0,0,0-1.947-.671,2.781,2.781,0,0,0-2.176.859,3.151,3.151,0,0,0-.777,2.2V113.1h-2.857v-9.789a2.569,2.569,0,0,0-.748-1.928,2.67,2.67,0,0,0-1.946-.729,2.786,2.786,0,0,0-1.5.427,3.138,3.138,0,0,0-1.1,1.184,3.594,3.594,0,0,0-.417,1.755v9.08Z" fill="#0b2b6a"/>
        </g>
      </g>
    </g>
  </g>
</svg>
